PathFileType	4	(X/Y/Z)	D:\TRACE\v60_Jaco2_6-2-23\BothDRS_Motion3_8-platform.trc
DataRate	CameraRate	NumFrames	NumMarkers	Units	OrigDataRate	OrigDataStartFrame	OrigNumFrames
100.00	100.00	      30	5	mm	100.00	2626	      7000
Frame#	Time	Left_Front			Right_Front			Left_Aft			Right_Aft			Post			
		X1	Y1	Z1	X2	Y2	Z2	X3	Y3	Z3	X4	Y4	Z4	X5	Y5	Z5	

2626	26.250	-790.05194	74.73705	-631.70636	780.09766	72.99975	-609.29980	-721.27716	-34.17149	498.82755	692.79419	-45.54087	601.50073	2.89859	1397.61584	-816.46063	
2627	26.260	-790.30280	74.79210	-631.68799	779.73083	72.89486	-609.30731	-721.68677	-34.13260	498.92096	692.68585	-45.49756	601.47357	2.66163	1397.57422	-816.44507	
2628	26.270	-791.03918	74.70592	-632.06268	779.37274	72.93942	-609.23798	-722.08014	-34.12188	498.97354	692.34790	-45.43196	601.38989	2.50078	1397.48938	-816.24860	
2629	26.280	-791.55707	74.83329	-631.93677	778.99243	72.91982	-609.27441	-722.37744	-34.13424	498.98108	691.95294	-45.33718	601.36078	2.20843	1397.39783	-815.90430	
2630	26.290	-791.99506	74.76942	-631.92847	778.45679	72.67472	-609.35840	-722.89429	-33.97090	498.93073	691.37872	-45.50853	601.52478	1.89155	1397.34229	-815.75513	
2631	26.300	-792.45947	74.67645	-632.07043	778.05286	72.58847	-609.43134	-723.22028	-33.86528	498.93158	691.00500	-45.41661	601.49060	1.48955	1397.30286	-815.75836	
2632	26.310	-792.76514	74.64722	-632.37512	777.83887	72.47343	-609.49036	-723.47180	-33.76474	498.91745	690.67419	-45.35887	601.41339	1.24314	1397.22815	-815.87677	
2633	26.320	-793.05426	74.57655	-632.51135	777.66455	72.39829	-609.50098	-723.86145	-33.54603	498.93066	690.33722	-45.29568	601.43286	0.99675	1397.03918	-816.02551	
2634	26.330	-793.02454	74.24165	-632.08722	777.42853	72.30679	-609.51331	-724.12689	-33.55145	498.91400	690.09930	-45.19650	601.45172	0.61848	1396.76416	-816.46893	
2635	26.340	-793.16876	74.22880	-632.11896	777.20978	72.22272	-609.56854	-724.21466	-33.56203	498.93399	689.77588	-45.06233	601.57983	0.34484	1396.72559	-816.85406	
2636	26.350	-793.35602	74.23295	-632.21179	776.91016	72.10603	-609.60333	-724.27277	-33.43201	498.99701	689.50165	-45.06423	601.55341	0.08861	1396.59167	-817.39374	
2637	26.360	-793.97131	74.00087	-632.58716	776.51355	72.06327	-609.70941	-724.70135	-33.47395	498.86420	689.26996	-45.05832	601.46576	-0.72306	1396.55432	-818.04163	
2638	26.370	-794.21234	73.86993	-632.55371	776.08728	71.95247	-609.74347	-725.12653	-33.36146	498.78726	689.07458	-45.05687	601.35297	-0.75695	1396.48047	-818.38055	
2639	26.380	-794.53625	73.81695	-632.64355	775.80151	71.84184	-609.77667	-725.41840	-33.39769	498.71167	688.51880	-44.73095	601.44641	-1.19299	1396.28638	-818.88202	
2640	26.390	-794.80408	73.64468	-632.67822	775.51599	71.66885	-609.83282	-725.77032	-33.37184	498.72623	688.19385	-44.65011	601.41895	-1.28214	1396.07751	-819.13647	
2641	26.400	-794.99524	73.72460	-632.52789	775.25464	71.53484	-609.80988	-726.09863	-33.10661	498.67615	688.09912	-44.45987	601.29865	-1.46763	1395.98645	-819.32532	
2642	26.410	-795.53223	73.82588	-632.34247	775.07263	71.37884	-609.89093	-726.41132	-32.93915	498.73203	687.86658	-44.40572	601.19592	-1.60036	1395.70313	-819.54987	
2643	26.420	-795.89014	73.58855	-632.42651	774.91949	71.23457	-610.02667	-726.32532	-32.78391	498.76120	687.80914	-44.39528	601.11322	-1.78323	1395.28796	-819.78998	
2644	26.430	-796.03705	73.30759	-632.66150	774.64246	70.99089	-610.10535	-726.53455	-32.72214	498.66800	687.75720	-44.37172	601.08990	-2.06098	1394.95313	-819.99921	
2645	26.440	-796.40155	73.07069	-632.87836	774.41321	70.74053	-610.11700	-726.83490	-32.51473	498.59708	687.22656	-43.90771	601.22699	-2.23256	1394.75171	-820.11560	
2646	26.450	-796.68152	72.85116	-633.13318	774.28473	70.52409	-610.20331	-727.05865	-32.27482	498.52496	686.94781	-43.78735	601.12817	-2.46455	1394.43262	-820.69324	
2647	26.460	-796.78979	72.66380	-633.28021	774.17676	70.34326	-610.21967	-727.31183	-31.99448	498.44785	686.76740	-43.56437	601.07532	-2.64245	1394.21704	-821.15808	
2648	26.470	-796.97791	72.45396	-633.36676	773.90564	70.12952	-610.37793	-727.50537	-31.88054	498.41574	686.50256	-43.29932	600.87732	-2.74952	1393.94080	-821.79297	
2649	26.480	-797.02899	72.13468	-633.33313	773.74756	69.84077	-610.45776	-727.67889	-31.75290	498.40942	686.37225	-43.16739	600.79462	-2.88297	1393.76294	-822.42078	
2650	26.490	-797.07758	71.86758	-633.39996	773.58588	69.62597	-610.60443	-727.75012	-31.62885	498.40448	686.37915	-42.97905	600.81116	-2.95057	1393.24329	-823.53876	
2651	26.500	-796.90057	71.45452	-632.95294	773.33032	69.27361	-610.79114	-727.82123	-31.50249	498.38065	686.30298	-42.53951	600.93811	-3.10572	1392.97302	-824.09363	
2652	26.510	-796.97668	71.05804	-633.04901	773.24597	68.99255	-610.82629	-727.96814	-31.25406	498.25946	686.17480	-42.30121	600.88763	-3.38384	1392.59888	-824.85223	
2653	26.520	-797.45441	70.69759	-633.63599	773.20758	68.57625	-610.83014	-728.13776	-30.95513	498.10623	686.10962	-42.09150	600.77429	-3.27494	1392.15344	-825.79932	
2654	26.530	-797.49762	70.32569	-633.80713	773.00018	68.10756	-610.95337	-728.32361	-30.72262	498.08481	685.91400	-41.71137	600.80707	-3.62519	1391.57129	-826.50165	
2655	26.540	-797.56866	70.13847	-633.83270	772.93787	67.94919	-611.03186	-728.40771	-30.48976	498.05637	685.76276	-41.26158	600.83527	-3.57878	1391.07458	-827.20313	
